<?xml version="1.0" encoding="UTF-8"?>
<svg version="1.1" xmlns="http://www.w3.org/2000/svg" width="930" height="925">
<path d="M0 0 C306.9 0 613.8 0 930 0 C930 305.25 930 610.5 930 925 C623.1 925 316.2 925 0 925 C0 619.75 0 314.5 0 0 Z " fill="#131746" transform="translate(0,0)"/>
<path d="M0 0 C5.07166471 2.98603448 5.07166471 2.98603448 6.109375 6.19140625 C6.20734375 6.7946875 6.3053125 7.39796875 6.40625 8.01953125 C7.00953125 7.67019531 7.6128125 7.32085937 8.234375 6.9609375 C9.03359375 6.50589844 9.8328125 6.05085938 10.65625 5.58203125 C11.83960938 4.90333984 11.83960938 4.90333984 13.046875 4.2109375 C19.89298814 0.75387706 27.92493996 1.86592947 35.40625 2.01953125 C37.03820312 2.04466797 37.03820312 2.04466797 38.703125 2.0703125 C52.37455526 2.70324909 63.01158697 9.08266048 72.21875 18.89453125 C80.24272318 28.7658843 80.59837608 38.67517213 79.40625 51.01953125 C76.96973663 64.89242923 69.1905368 79.90982472 59.40625 90.01953125 C58.41625 90.67953125 57.42625 91.33953125 56.40625 92.01953125 C57.54866321 94.49475987 58.76797918 96.50560484 60.40625 98.70703125 C65.18495624 106.62176346 65.62927633 116.6559724 63.90625 125.62109375 C62.40086811 131.00967664 60.11554023 135.97031341 57.734375 141.01953125 C55.7352096 145.5352931 54.15721748 150.18313942 52.54296875 154.84765625 C51.65788415 157.31737685 50.70972597 159.6513569 49.59375 162.01953125 C48.30189978 165.28315286 48.00190356 167.54215184 48.40625 171.01953125 C50.29479054 173.31736554 50.29479054 173.31736554 53.40625 173.39453125 C60.96269881 173.08098566 66.85379781 170.0719294 72.03125 164.64453125 C80.63869726 154.3400562 86.51523086 143.35763364 86.84375 129.83203125 C87.33101811 117.92974103 89.52936804 108.92632655 96.40625 99.01953125 C96.82390625 98.39304687 97.2415625 97.7665625 97.671875 97.12109375 C105.58668677 86.58390459 119.29735641 81.55659257 131.85546875 79.4375 C148.34833283 77.49609576 167.69588281 79.38069751 181.78125 88.83203125 C184.66013436 90.73688586 184.66013436 90.73688586 188.09375 91.08203125 C190.52967606 90.08593911 190.52967606 90.08593911 192.67578125 88.1171875 C206.48848991 77.50570746 227.0938683 77.79146512 243.53125 79.70703125 C254.95828196 81.55134905 263.46902635 86.05719706 273.40625 92.01953125 C273.40625 76.17953125 273.40625 60.33953125 273.40625 44.01953125 C285.94625 44.01953125 298.48625 44.01953125 311.40625 44.01953125 C311.73625 68.76953125 312.06625 93.51953125 312.40625 119.01953125 C321.9182252 107.77810601 331.39571918 96.52104451 340.69140625 85.1015625 C341.56180655 84.04478947 342.4381679 82.98761335 343.40625 82.01953125 C344.81850046 81.92665865 346.23533934 81.90206353 347.65063477 81.90600586 C348.55149307 81.90608139 349.45235138 81.90615692 350.38050842 81.90623474 C351.35966721 81.91139603 352.33882599 81.91655731 353.34765625 81.921875 C354.34506332 81.92328995 355.3424704 81.9247049 356.37010193 81.92616272 C359.56968124 81.93178011 362.76919169 81.94433554 365.96875 81.95703125 C368.13216045 81.96204401 370.29557199 81.9666073 372.45898438 81.97070312 C377.77476325 81.98175518 383.09050171 81.99851021 388.40625 82.01953125 C387.41625 83.33953125 386.42625 84.65953125 385.40625 86.01953125 C386.89125 85.02953125 386.89125 85.02953125 388.40625 84.01953125 C392.35560598 82.81729199 396.38535675 81.95010927 400.40625 81.01953125 C401.1796875 80.80941406 401.953125 80.59929687 402.75 80.3828125 C421.26828379 75.78584416 442.34555263 79.0515184 459.40625 87.01953125 C461.09906817 88.31950132 462.77200546 89.64665095 464.40625 91.01953125 C465.39625 91.34953125 466.38625 91.67953125 467.40625 92.01953125 C467.40625 91.35953125 467.40625 90.69953125 467.40625 90.01953125 C476.46391377 82.71496369 488.91945664 79.451931 500.40625 79.01953125 C501.97439453 78.95958984 501.97439453 78.95958984 503.57421875 78.8984375 C523.11189801 78.52980204 539.46221012 82.42211123 554.24609375 95.66796875 C565.39897935 107.30329469 565.40625 124.02644914 565.40625 139.01953125 C539.99625 139.01953125 514.58625 139.01953125 488.40625 139.01953125 C490.41533972 149.77516047 490.41533972 149.77516047 496.90625 157.95703125 C503.32993116 160.68709574 511.25642065 161.5090468 517.8984375 159.125 C519.7696745 158.15510976 521.59305115 157.09401946 523.40625 156.01953125 C524.06625 156.01953125 524.72625 156.01953125 525.40625 156.01953125 C526.06625 152.71953125 526.72625 149.41953125 527.40625 146.01953125 C539.94625 146.01953125 552.48625 146.01953125 565.40625 146.01953125 C563.83241279 158.61022897 560.76796026 166.30134281 551.40625 175.01953125 C550.77332031 175.61894531 550.14039063 176.21835937 549.48828125 176.8359375 C535.81498334 187.72545021 512.69331066 186.20130364 496.40625 185.01953125 C494.10819135 184.66015606 491.81363661 184.27755664 489.5234375 183.87109375 C484.45000335 183.01374038 481.31656117 183.3251281 476.40625 185.01953125 C466.13502887 186.07088202 453.38195825 186.78725488 444.40625 181.01953125 C442.00330531 178.81052501 440.31449289 176.70138613 438.40625 174.01953125 C436.39830052 174.99011437 434.46493743 175.98274212 432.57421875 177.16796875 C419.121258 185.4997827 403.80317695 186.23857374 388.40625 185.01953125 C387.77785217 184.84955124 387.14945435 184.67957123 386.50201416 184.50444031 C383.06340435 183.7088293 379.5901599 184.13212608 376.08984375 184.30078125 C350.34637691 185.14026128 350.34637691 185.14026128 343.70556641 181.56591797 C339.86952594 177.8773797 338.072974 173.38646839 336.34716797 168.4296875 C334.71908186 164.25935379 332.17965713 160.67503063 329.71875 156.95703125 C328.87688816 155.61486738 328.03917241 154.27008727 327.20703125 152.921875 C326.61277344 151.96410156 326.01851562 151.00632812 325.40625 150.01953125 C319.77452581 152.64852835 315.53052179 155.52359564 312.40625 161.01953125 C310.97623476 168.28946422 311.36203613 175.63581539 311.40625 183.01953125 C298.86625 183.01953125 286.32625 183.01953125 273.40625 183.01953125 C273.07625 179.71953125 272.74625 176.41953125 272.40625 173.01953125 C271.519375 173.74140625 270.6325 174.46328125 269.71875 175.20703125 C256.88562412 184.27783508 241.67985177 185.15798573 226.53125 185.26953125 C225.06872803 185.28367065 225.06872803 185.28367065 223.57666016 185.2980957 C217.82112328 185.27196555 212.92119306 184.67283324 207.40625 183.01953125 C206.4471875 182.7359375 205.488125 182.45234375 204.5 182.16015625 C198.87535885 180.22880357 194.61441701 178.06698908 190.16015625 174.09375 C188.47056486 172.82220332 188.47056486 172.82220332 186.4609375 173.17578125 C184.07942597 174.15374036 182.1118484 175.40450365 179.96875 176.83203125 C164.50409511 186.37698145 142.75494608 187.75618679 125.23046875 184.11328125 C118.20730411 182.31553254 111.85239136 179.72292338 106.0703125 175.25390625 C104.31054627 173.81473262 104.31054627 173.81473262 101.40625 173.01953125 C101.16003906 173.74398437 100.91382813 174.4684375 100.66015625 175.21484375 C94.8672504 188.17218456 80.83103964 196.10314567 68.29101562 201.31225586 C61.89200319 203.7135433 55.838734 204.37935307 49.03125 204.33203125 C47.77562256 204.32465942 47.77562256 204.32465942 46.49462891 204.31713867 C40.38184047 204.20120853 35.02461597 203.57614549 29.40625 201.01953125 C28.63152344 200.67921875 27.85679687 200.33890625 27.05859375 199.98828125 C18.00888254 195.51630376 12.70061033 188.44211025 9.40625 179.01953125 C5.18333016 164.82031755 12.04992061 149.2665917 18.59375 136.76953125 C20.26380383 133.48836666 21.10314499 130.73256764 21.40625 127.01953125 C21.48101562 126.271875 21.55578125 125.52421875 21.6328125 124.75390625 C21.77644154 122.410485 21.80113501 120.3343744 21.40625 118.01953125 C18.5932613 115.20654255 16.79116885 115.0465431 12.84375 114.76953125 C9.65641268 114.88933426 9.65641268 114.88933426 7.64453125 115.50390625 C1.42643128 116.93634813 -6.49438008 117.61644899 -12.28515625 114.6328125 C-16.02134027 111.46084043 -17.95270759 108.65447542 -19.59375 104.01953125 C-22.49277354 111.34056767 -25.20786506 118.70415723 -27.78125 126.14453125 C-31.02873059 135.53200738 -34.4851385 144.83556033 -37.96264648 154.13989258 C-40.38932625 160.66568728 -42.69885394 167.2086851 -44.84375 173.83203125 C-52.40711201 196.78220537 -52.40711201 196.78220537 -59.89453125 202.71875 C-65.21219498 205.28138679 -70.87622447 205.00484925 -76.59375 204.01953125 C-82.32208097 201.63731669 -85.78960714 198.62781696 -88.59375 193.01953125 C-88.9570396 187.39210409 -87.96666039 182.72985069 -86.40625 177.39453125 C-86.17921387 176.59893799 -85.95217773 175.80334473 -85.71826172 174.98364258 C-84.09399907 169.41770867 -82.16231371 164.04047927 -79.98828125 158.6640625 C-77.77510927 152.88005841 -75.89911293 146.98358748 -74.00439453 141.08862305 C-73.57876221 139.78211792 -73.57876221 139.78211792 -73.14453125 138.44921875 C-72.89356689 137.66788574 -72.64260254 136.88655273 -72.3840332 136.08154297 C-71.59375 134.01953125 -71.59375 134.01953125 -69.59375 131.01953125 C-69.10453217 129.0936231 -68.6190971 127.16654745 -68.16552734 125.23193359 C-67.19948622 121.49398969 -65.78452533 117.93398532 -64.40625 114.33203125 C-61.87746346 107.60618438 -59.50912191 100.85066646 -57.28125 94.01953125 C-54.26032109 84.79752178 -50.91669971 75.71474732 -47.51000977 66.62915039 C-43.82589289 56.75756166 -40.3728442 46.8167788 -36.99291992 36.83789062 C-34.96658016 30.88079767 -32.85981624 24.99963153 -30.43432617 19.19238281 C-29.56021581 16.93284689 -28.90628783 14.67145115 -28.28125 12.33203125 C-26.47847511 6.74541017 -22.6581055 2.96660575 -17.76171875 -0.14453125 C-12.34412953 -2.23347556 -5.39161844 -2.03809673 0 0 Z " fill="#FBFBFB" transform="translate(230.59375,352.98046875)"/>
<path d="M0 0 C2.12890625 1.0703125 2.12890625 1.0703125 5.12890625 3.0703125 C8.67114111 2.75404153 11.75534899 2.19483159 15.12890625 1.0703125 C34.89526237 -0.52144671 52.28412142 1.53577571 68.12890625 14.0703125 C76.74378615 21.97749294 82.5604124 31.56320812 83.34765625 43.34375 C83.69743412 57.24742023 81.46680819 69.60507014 75.12890625 82.0703125 C74.69578125 83.2459375 74.26265625 84.4215625 73.81640625 85.6328125 C71.71902701 89.9052517 68.89510779 93.16664047 65.7734375 96.73828125 C63.74470163 99.13953999 63.74470163 99.13953999 64.12890625 103.0703125 C64.75776531 105.04111187 65.42974535 106.99834359 66.12890625 108.9453125 C71.27153165 125.40171379 66.48719072 140.3909685 59.65625 155.6171875 C57.26654195 161.02000571 55.20505403 166.54004275 53.12890625 172.0703125 C59.27982203 169.11787293 62.33257078 165.65572561 66.12890625 160.0703125 C66.63679687 159.43351563 67.1446875 158.79671875 67.66796875 158.140625 C69.30207342 155.82491517 70.25048093 153.59214307 71.25390625 150.9453125 C73.09093157 146.14626187 73.09093157 146.14626187 74.12890625 144.0703125 C74.26208548 141.69676263 74.36004014 139.32120291 74.44140625 136.9453125 C75.28950566 120.76900948 79.50089257 105.3395515 91.7734375 93.9453125 C109.59152547 79.76175989 128.98063268 76.74088958 151.12890625 78.0703125 C160.29310045 79.15219654 168.43728425 82.15565717 176.8515625 85.765625 C182.28478606 88.0888701 182.28478606 88.0888701 187.8203125 86.9609375 C188.76777344 86.41953125 189.71523438 85.878125 190.69140625 85.3203125 C211.89804507 74.06407933 237.06649442 76.75199627 259.18310547 83.47338867 C259.82521973 83.67037354 260.46733398 83.8673584 261.12890625 84.0703125 C261.10795898 82.97041992 261.08701172 81.87052734 261.06542969 80.73730469 C260.9929699 76.65231369 260.9470851 72.56737936 260.90917969 68.48193359 C260.88907775 66.71458378 260.86179153 64.94730037 260.82714844 63.18017578 C260.77856616 60.63817965 260.75592399 58.09706354 260.73828125 55.5546875 C260.70731354 54.37166046 260.70731354 54.37166046 260.67572021 53.16473389 C260.67437648 49.87142898 260.90438276 47.47661581 262.50878906 44.57324219 C266.66795794 42.18749455 270.72817641 42.49984087 275.44140625 42.5390625 C276.44727783 42.5352356 277.45314941 42.53140869 278.48950195 42.52746582 C280.61443076 42.52474599 282.73939301 42.53211209 284.86425781 42.54882812 C288.11729557 42.57023609 291.3681247 42.54902818 294.62109375 42.5234375 C296.68620279 42.52608076 298.75131046 42.53120571 300.81640625 42.5390625 C301.78940674 42.53096558 302.76240723 42.52286865 303.76489258 42.51452637 C304.67263428 42.52713501 305.58037598 42.53974365 306.515625 42.55273438 C307.70998169 42.55750793 307.70998169 42.55750793 308.9284668 42.56237793 C312.04582738 43.28196838 313.22288574 44.53196038 315.12890625 47.0703125 C315.60992432 49.67730713 315.60992432 49.67730713 315.58300781 52.66503906 C315.58255463 54.34632904 315.58255463 54.34632904 315.58209229 56.06158447 C315.56144714 57.26587097 315.540802 58.47015747 315.51953125 59.7109375 C315.51387146 60.94825623 315.50821167 62.18557495 315.50238037 63.46038818 C315.48378876 66.74209186 315.44788123 70.02300531 315.40356445 73.30444336 C315.3625679 76.65601317 315.34470126 80.00761694 315.32421875 83.359375 C315.28010529 89.92999641 315.21315702 96.50008982 315.12890625 103.0703125 C316.11890625 103.0703125 317.10890625 103.0703125 318.12890625 103.0703125 C318.46921875 102.296875 318.46921875 102.296875 318.81640625 101.5078125 C321.80521721 95.95716357 325.56026171 91.41052481 330.12890625 87.0703125 C331.03640625 86.1628125 331.94390625 85.2553125 332.87890625 84.3203125 C336.11719232 81.08202643 336.54553602 80.94292092 341.16088867 80.89672852 C342.23678757 80.88323868 343.31268646 80.86974884 344.42118835 80.85585022 C346.18496574 80.84019264 346.18496574 80.84019264 347.984375 80.82421875 C350.46940398 80.79123663 352.95442994 80.75802584 355.43945312 80.72460938 C359.36024537 80.67750031 363.28102947 80.63317038 367.2019043 80.59350586 C370.9837045 80.55334302 374.76523065 80.50186226 378.546875 80.44921875 C380.27117989 80.43659752 380.27117989 80.43659752 382.03031921 80.42372131 C389.14539018 80.31770337 395.99288746 79.65062802 403.0201416 78.52386475 C407.50361372 77.86974998 411.91686838 77.72750331 416.44140625 77.7578125 C417.32948975 77.76200195 418.21757324 77.76619141 419.13256836 77.77050781 C431.92534002 77.9855316 446.94515965 79.66705965 458.140625 86.25390625 C462.41937617 88.01080015 466.54317783 85.58484747 470.59472656 83.94970703 C492.48261746 75.1598747 517.28312274 75.6342439 539.125 84.55859375 C544.07766066 87.05102506 548.05735217 90.34404923 552.12890625 94.0703125 C552.77601563 94.61429687 553.423125 95.15828125 554.08984375 95.71875 C563.25989054 103.92774385 567.11343766 116.1550264 568.12890625 128.0703125 C568.27976214 130.94433137 568.33812853 133.81377543 568.3671875 136.69140625 C568.37525925 137.47620865 568.38333099 138.26101105 568.39164734 139.06959534 C568.40536315 140.71572745 568.41614009 142.3618865 568.42407227 144.00805664 C568.43561644 145.67285647 568.45610674 147.3376186 568.4855957 149.00219727 C568.73567693 163.17300124 567.16680574 173.33344902 557.12890625 184.0703125 C547.91773605 193.34958747 534.9587933 198.18500467 522.12890625 200.0703125 C521.3915625 200.17988281 520.65421875 200.28945313 519.89453125 200.40234375 C509.15387151 201.71860107 498.56724468 201.34250282 487.87890625 199.9453125 C481.77784356 199.15913271 476.75040587 199.11945216 470.70703125 200.546875 C458.74332174 202.97587057 447.10426323 199.74315388 436.12890625 195.0703125 C434.88947266 194.19826172 434.88947266 194.19826172 433.625 193.30859375 C431.18324481 191.75256498 431.18324481 191.75256498 428.5859375 192.765625 C427.27689453 193.47332031 427.27689453 193.47332031 425.94140625 194.1953125 C413.05847628 200.67140902 399.20600633 202.85868897 384.984375 200.08203125 C379.49279227 199.12340615 374.15913727 198.86653987 368.6015625 198.796875 C367.75812286 198.78572159 366.91468323 198.77456818 366.04568481 198.76307678 C362.53361216 198.72416592 359.02180696 198.69712676 355.50952148 198.68945312 C352.91472088 198.67994052 350.32109852 198.64623408 347.7265625 198.609375 C346.93693619 198.61442047 346.14730988 198.61946594 345.33375549 198.62466431 C340.29276136 198.53452005 337.65653524 197.69513508 334.12890625 194.0703125 C332.35546875 191.44140625 332.35546875 191.44140625 330.75390625 188.5078125 C327.83403791 183.27771867 324.71104597 178.24982109 321.4140625 173.25 C320.12890625 171.0703125 320.12890625 171.0703125 320.12890625 169.0703125 C318.05952854 170.25572761 318.05952854 170.25572761 316.12890625 172.0703125 C315.56985137 174.29741703 315.56985137 174.29741703 315.6953125 176.78125 C315.68564453 177.69648437 315.67597656 178.61171875 315.66601562 179.5546875 C315.68287443 181.47399736 315.70367554 183.39327684 315.72851562 185.3125 C315.71755859 186.2303125 315.70660156 187.148125 315.6953125 188.09375 C315.70506104 188.92825684 315.71480957 189.76276367 315.72485352 190.62255859 C314.79752336 194.4314124 313.29691237 195.78648266 310.12890625 198.0703125 C306.79727486 198.77275352 303.55049692 198.72428334 300.15625 198.6640625 C299.19618546 198.66410278 298.23612091 198.66414307 297.2469635 198.66418457 C295.22211136 198.65883416 293.19725942 198.64127197 291.17260742 198.61230469 C288.07341096 198.5704072 284.97638538 198.5712412 281.87695312 198.578125 C279.90753698 198.56763357 277.93813204 198.55469572 275.96875 198.5390625 C275.04263412 198.53886108 274.11651825 198.53865967 273.16233826 198.53845215 C268.4625225 198.45194525 265.71615167 198.38280665 262.12890625 195.0703125 C258.15710096 195.22606957 254.76575678 196.16696984 251.06640625 197.5078125 C230.32567229 204.69136042 207.82309333 201.56626807 188.12890625 193.0703125 C187.0821875 192.46960938 186.03546875 191.86890625 184.95703125 191.25 C182.2402289 189.77527361 182.2402289 189.77527361 179.7421875 190.73046875 C178.98292969 191.19324219 178.22367187 191.65601563 177.44140625 192.1328125 C158.59514238 202.63728744 137.7316104 202.95135246 117.12890625 198.0703125 C111.31698963 196.4124871 105.7272239 194.33581874 100.12890625 192.0703125 C99.35546875 192.86695313 98.58203125 193.66359375 97.78515625 194.484375 C84.02210088 208.55135342 68.61719086 219.2166466 48.1640625 219.44140625 C47.07996094 219.44269531 45.99585938 219.44398438 44.87890625 219.4453125 C43.81027344 219.46980469 42.74164063 219.49429688 41.640625 219.51953125 C28.93290967 219.56585342 16.99739974 214.71190991 7.25 206.484375 C-1.36958803 197.25713977 -4.28848916 186.04061647 -4.13671875 173.78515625 C-3.34745559 162.74707878 1.94913889 152.18453768 6.04272461 142.02758789 C6.42565674 141.07231201 6.80858887 140.11703613 7.203125 139.1328125 C7.54947998 138.27816406 7.89583496 137.42351562 8.25268555 136.54296875 C9.13133801 134.06345019 9.67885203 131.65892016 10.12890625 129.0703125 C9.27232422 129.286875 9.27232422 129.286875 8.3984375 129.5078125 C-2.00578801 131.88970197 -11.56362601 131.60637994 -21.87109375 129.0703125 C-22.2578125 130.25367188 -22.64453125 131.43703125 -23.04296875 132.65625 C-25.45455651 139.99123713 -27.86362292 147.2800421 -30.81640625 154.41796875 C-32.21582556 157.93724915 -33.48578691 161.49951008 -34.74609375 165.0703125 C-35.00205322 165.79541016 -35.2580127 166.52050781 -35.52172852 167.26757812 C-37.10260567 171.78296159 -38.60669992 176.31817392 -40.07397461 180.87158203 C-49.42024423 209.64032554 -49.42024423 209.64032554 -59.87109375 216.0703125 C-64.903198 218.6312407 -69.21069826 219.59161333 -74.80859375 219.5078125 C-75.51226074 219.50096436 -76.21592773 219.49411621 -76.94091797 219.48706055 C-82.49689267 219.31508683 -86.43593049 218.38045874 -90.87109375 215.0703125 C-92.47984375 213.925625 -92.47984375 213.925625 -94.12109375 212.7578125 C-99.43213356 207.56747814 -101.14693303 203.94432918 -101.62109375 196.5703125 C-101.57382161 186.66804321 -97.68030508 177.69050209 -94.19824219 168.56982422 C-91.91404055 162.54669208 -89.73200631 156.4862951 -87.53549194 150.43075562 C-86.74543994 148.2560128 -85.95189913 146.08257137 -85.1574707 143.90942383 C-82.37253605 136.28229759 -79.67089594 128.6403825 -77.171875 120.91430664 C-74.30078327 112.14975662 -71.03787622 103.51909742 -67.82788086 94.87426758 C-65.38947741 88.28862407 -63.0473035 81.68921356 -60.85400391 75.01806641 C-59.11286952 69.79639313 -57.23925604 64.62260868 -55.37109375 59.4453125 C-54.99339844 58.39085937 -54.61570313 57.33640625 -54.2265625 56.25 C-52.46629664 51.36238895 -50.6653639 46.50497735 -48.7109375 41.69140625 C-47.25218465 38.08963647 -46.0080126 34.4959979 -44.93359375 30.7578125 C-37.78780252 7.2708708 -37.78780252 7.2708708 -28.3046875 1.51171875 C-18.31939984 -3.61900402 -10.44703201 -4.52760617 0 0 Z M-25.87109375 10.0703125 C-26.391875 10.55628906 -26.91265625 11.04226563 -27.44921875 11.54296875 C-31.26491046 15.46053572 -32.75431824 19.12364525 -34.10546875 24.36328125 C-34.9165953 27.23119299 -35.99033164 29.840159 -37.18359375 32.5703125 C-39.96219762 39.06758682 -42.13739896 45.70958959 -44.3359375 52.41796875 C-47.63576911 62.47669355 -51.23013802 72.42768819 -54.99609375 82.3203125 C-57.21488169 88.15096462 -59.16870584 94.01462435 -60.9140625 100.0078125 C-62.62691927 105.48895415 -64.76935614 110.81207643 -66.84375 116.1640625 C-67.35711914 117.49244141 -67.35711914 117.49244141 -67.88085938 118.84765625 C-68.58319157 120.66407754 -69.28892813 122.47918613 -69.99804688 124.29296875 C-71.53928699 128.29611416 -72.98440135 132.22612623 -73.98046875 136.40234375 C-74.75706554 139.60069634 -75.7041595 142.2762081 -77.05859375 145.2578125 C-82.43476616 157.80751674 -86.44388373 171.00353203 -90.046875 184.16015625 C-90.62481601 186.20075367 -91.2661024 188.22396592 -91.953125 190.23046875 C-93.0938349 193.7593883 -93.26664103 196.37853789 -92.87109375 200.0703125 C-90.07665555 205.34869577 -86.60515993 209.15895711 -80.87109375 211.0703125 C-77.74795432 211.49715904 -77.74795432 211.49715904 -74.24609375 211.6328125 C-73.07820313 211.71660156 -71.9103125 211.80039062 -70.70703125 211.88671875 C-64.91417999 210.65382067 -61.61822618 207.5642976 -57.87109375 203.0703125 C-55.72363186 199.38181598 -54.24796654 195.58106806 -52.80859375 191.5703125 C-52.39722168 190.4867749 -51.98584961 189.4032373 -51.56201172 188.28686523 C-47.99175525 178.757684 -44.7712044 169.10542936 -41.66015625 159.41796875 C-40.21971868 154.99077088 -38.55615434 150.69361913 -36.79492188 146.38549805 C-35.48850116 143.11150554 -34.39644294 139.79861662 -33.30859375 136.4453125 C-30.48752271 127.84699678 -27.25816721 119.46062646 -23.87109375 111.0703125 C-23.52046875 111.9365625 -23.16984375 112.8028125 -22.80859375 113.6953125 C-20.37548642 117.9336285 -18.38777521 120.97509429 -13.87109375 123.0703125 C-7.50258959 123.78549211 -1.08562698 123.79657173 5.12890625 122.0703125 C8.79141872 121.80394796 11.56165265 121.88927412 15.06640625 123.0078125 C17.47445504 125.41586129 17.4768348 126.03415987 17.56640625 129.3203125 C16.92517663 139.84997785 11.87822559 149.78757218 7.94140625 159.4453125 C3.64024862 170.29398133 2.40035212 179.46280228 6.859375 190.4921875 C11.95712071 200.84453264 19.54889771 205.9812 30.12890625 210.0703125 C40.43469728 212.92613411 54.40780432 212.43393813 64.12890625 208.0703125 C65.22460938 207.59464844 66.3203125 207.11898437 67.44921875 206.62890625 C79.54672776 200.99820821 89.68231319 193.35755528 97.12890625 182.0703125 C97.12890625 181.4103125 97.12890625 180.7503125 97.12890625 180.0703125 C98.52535405 180.8400321 99.92103324 181.61114619 101.31640625 182.3828125 C102.09371094 182.81207031 102.87101563 183.24132812 103.671875 183.68359375 C105.32020726 184.61389256 106.94464985 185.5877421 108.54296875 186.6015625 C123.26389859 194.96269486 145.08693898 194.40807815 161.06640625 190.4453125 C168.23582937 188.32103898 175.75672758 185.44249117 181.12890625 180.0703125 C184.45664767 180.42462317 186.54572172 181.92945663 189.19140625 183.8828125 C204.90443807 194.66931619 226.839738 193.94364913 244.984375 190.828125 C253.58794417 188.75471827 261.24930405 185.66998871 268.12890625 180.0703125 C268.45890625 183.3703125 268.78890625 186.6703125 269.12890625 190.0703125 C281.66890625 190.0703125 294.20890625 190.0703125 307.12890625 190.0703125 C307.03609375 184.965625 307.03609375 184.965625 306.94140625 179.7578125 C307.03509379 172.97692796 307.31909581 167.66879325 312.13354492 162.58911133 C314.36527258 160.59241281 316.66307273 158.76836589 319.12890625 157.0703125 C323.19601212 158.42601446 324.11767357 161.03228839 326.12890625 164.5703125 C326.53729736 165.22725098 326.94568848 165.88418945 327.36645508 166.56103516 C329.63278938 170.23740833 331.42352785 173.7235058 332.828125 177.8125 C334.94603845 183.13082832 336.94067586 187.26359548 342.12890625 190.0703125 C352.37147924 192.58097467 363.71585102 191.74162695 374.16326904 191.23831177 C377.7265006 191.07043645 380.70057076 191.14295649 384.12890625 192.0703125 C400.01057441 193.32773408 415.62748616 192.62743464 429.078125 183.2421875 C431.12890625 182.0703125 431.12890625 182.0703125 435.12890625 182.0703125 C435.80953125 182.9778125 436.49015625 183.8853125 437.19140625 184.8203125 C440.91304416 189.48064247 445.36777855 190.97886097 451.12890625 192.0703125 C459.78659176 192.77519225 468.686715 192.97599772 477.15625 190.921875 C481.7006213 189.92049762 484.97510692 190.44478486 489.44970703 191.52832031 C505.17891439 194.71028134 527.01285345 193.91270304 541.48828125 186.3046875 C544.27294192 184.39305558 546.68782024 182.40024573 549.12890625 180.0703125 C549.81339844 179.43996094 550.49789062 178.80960938 551.203125 178.16015625 C558.21522845 171.00104853 559.91388629 162.79047218 561.12890625 153.0703125 C548.58890625 153.0703125 536.04890625 153.0703125 523.12890625 153.0703125 C522.46890625 156.3703125 521.80890625 159.6703125 521.12890625 163.0703125 C518.81640625 164.5703125 518.81640625 164.5703125 516.12890625 165.0703125 C515.36835937 165.40417969 514.6078125 165.73804688 513.82421875 166.08203125 C507.86912046 168.26556729 500.64407644 167.85256159 494.62890625 165.9453125 C489.25562899 163.06677111 486.93522501 158.76716399 485.12890625 153.0703125 C484.79890625 150.7603125 484.46890625 148.4503125 484.12890625 146.0703125 C509.53890625 146.0703125 534.94890625 146.0703125 561.12890625 146.0703125 C561.12890625 130.52843241 560.46892507 113.82910347 549.16015625 101.9453125 C535.2282605 89.08510104 518.09536368 85.5516384 499.5703125 85.8828125 C487.29093312 86.55183658 472.78413338 88.72138081 463.12890625 97.0703125 C463.12890625 97.7303125 463.12890625 98.3903125 463.12890625 99.0703125 C456.45550199 95.27563165 456.45550199 95.27563165 453.73046875 93.5625 C438.57781766 84.87133976 415.39275016 83.23335917 398.47265625 87.43359375 C397.69921875 87.64371094 396.92578125 87.85382813 396.12890625 88.0703125 C394.5665625 88.43189453 394.5665625 88.43189453 392.97265625 88.80078125 C386.74301974 90.18441409 386.74301974 90.18441409 381.12890625 93.0703125 C382.11890625 91.7503125 383.10890625 90.4303125 384.12890625 89.0703125 C377.88530171 88.82186787 371.64461084 88.6410921 365.3972168 88.52099609 C363.27561293 88.47090873 361.1543508 88.40281351 359.03393555 88.31591797 C346.90779926 87.41374256 346.90779926 87.41374256 335.79345703 91.19360352 C333.5096159 93.71622462 331.81641034 96.12562763 330.12890625 99.0703125 C329.06384979 100.48014105 327.98346101 101.87871113 326.87890625 103.2578125 C326.33363281 103.97582031 325.78835938 104.69382812 325.2265625 105.43359375 C321.81643175 109.72007095 318.18725735 113.81718012 314.57128906 117.93041992 C314.02698242 118.55150635 313.48267578 119.17259277 312.921875 119.8125 C312.43227295 120.3679248 311.9426709 120.92334961 311.43823242 121.49560547 C309.93404252 123.24838107 309.93404252 123.24838107 308.12890625 126.0703125 C307.79890625 101.3203125 307.46890625 76.5703125 307.12890625 51.0703125 C294.58890625 51.0703125 282.04890625 51.0703125 269.12890625 51.0703125 C269.12890625 66.9103125 269.12890625 82.7503125 269.12890625 99.0703125 C264.50890625 96.4303125 259.88890625 93.7903125 255.12890625 91.0703125 C247.49073186 88.52425437 240.18104848 86.37902083 232.12890625 86.0703125 C231.03320312 86.01875 229.9375 85.9671875 228.80859375 85.9140625 C215.60462466 85.58327413 198.05311111 86.46515108 187.87890625 95.8828125 C185.12890625 98.0703125 185.12890625 98.0703125 182.37890625 98.2578125 C179.36412643 97.15625834 177.08826672 95.88442942 174.37890625 94.1953125 C159.92094673 85.18871477 140.18642374 84.07116586 123.81640625 87.3203125 C109.50455136 90.80983218 98.23506941 96.79072752 89.78515625 109.2578125 C85.11190153 117.19352806 83.12867618 124.68190376 82.89013672 133.80834961 C82.65838416 141.7040519 82.34558074 148.2086331 78.12890625 155.0703125 C77.62101563 156.02035156 77.113125 156.97039062 76.58984375 157.94921875 C71.39802045 167.42014756 66.15249939 175.90422329 55.53125 179.48828125 C52.16663305 180.30344861 49.57233056 180.50074054 46.12890625 180.0703125 C45.46890625 179.4103125 44.80890625 178.7503125 44.12890625 178.0703125 C44.12890625 170.81507335 46.55800815 165.25669748 49.5078125 158.69921875 C53.23463536 150.35652373 56.34248618 141.76846163 59.12890625 133.0703125 C59.45890625 132.0803125 59.78890625 131.0903125 60.12890625 130.0703125 C60.79059781 121.82461769 60.72657954 112.18005137 55.78125 105.15625 C54.5711567 103.78773223 53.35096524 102.42815583 52.12890625 101.0703125 C53.16617167 97.95851623 54.33491276 96.84582049 56.61328125 94.61328125 C63.76197405 87.33561719 67.72175849 79.261244 71.41259766 69.88574219 C71.9953795 68.40872591 72.61022832 66.94439304 73.234375 65.484375 C76.6199657 56.42434356 76.78612423 44.68542835 74.0625 35.45703125 C68.57062596 23.68017874 58.99750261 16.32558852 47.25390625 11.2578125 C42.00655554 9.48082122 36.62666272 9.28418403 31.12890625 9.0703125 C29.81664062 9.00585938 28.504375 8.94140625 27.15234375 8.875 C17.62078109 8.54298784 10.19661194 9.69184204 2.12890625 15.0703125 C2.0309375 14.46703125 1.93296875 13.86375 1.83203125 13.2421875 C0.7345707 9.85225381 -1.29094009 8.80431905 -4.28515625 7.05859375 C-11.56271417 4.2772914 -20.10744321 4.58781565 -25.87109375 10.0703125 Z " fill="#070707" transform="translate(234.87109375,345.9296875)"/>
<path d="M0 0 C5.08947956 4.34467767 4.17245756 6.55211801 5 14 C13.25 14 21.5 14 30 14 C30 20.27 30 26.54 30 33 C22.41 33 14.82 33 7 33 C6.67 34.98 6.34 36.96 6 39 C4.2692357 43.18471181 2.01437046 46.74191661 -2 49 C-8.98011408 51.2116766 -17.38580459 51.07183059 -24.125 48.25 C-28.48915197 45.96819477 -30.29513814 43.85438955 -32.04760742 39.24389648 C-33.61667323 33.89958033 -33.32789672 28.59608118 -33.3125 23.0625 C-33.32861328 21.90814453 -33.34472656 20.75378906 -33.36132812 19.56445312 C-33.36586287 11.66039623 -32.82239489 6.43264243 -27.6875 0.1875 C-19.30452249 -6.63585379 -8.92263145 -4.87856108 0 0 Z " fill="#09090A" transform="translate(474,462)"/>
<path d="M0 0 C4.59630144 3.79694467 6.71883812 7.1527599 7.30639648 13.1027832 C7.37651556 16.83973291 7.42088847 20.57490477 7.4375 24.3125 C7.47037109 25.60607422 7.50324219 26.89964844 7.53710938 28.23242188 C7.57882378 35.64620979 7.32510016 41.45885658 2 47 C-3.5402767 51.3252242 -9.07764033 51.44182319 -15.94921875 51.43359375 C-20.81656677 50.74181958 -23.33980284 48.690904 -26.6875 45.1875 C-31.49921379 38.55513775 -31.36531523 32.10480189 -31.375 24.1875 C-31.39949219 23.14529297 -31.42398437 22.10308594 -31.44921875 21.02929688 C-31.47476861 14.24581028 -30.6088568 8.83505282 -27 3 C-19.47822361 -4.52177639 -9.14744342 -5.01311855 0 0 Z " fill="#0A0A0A" transform="translate(387,461)"/>
<path d="M0 0 C2.57400623 1.80180436 4.51173289 3.31023057 6.5 5.75 C8.28814808 16.0712959 5.66151644 25.31614361 0.5 34.1875 C-0.16 35.033125 -0.82 35.87875 -1.5 36.75 C-2.056875 37.554375 -2.61375 38.35875 -3.1875 39.1875 C-6.18770677 41.21466674 -8.06928488 40.67861672 -11.53515625 40.125 C-15.40594115 39.63541456 -19.22674487 39.54206599 -23.125 39.5 C-23.84131592 39.47905273 -24.55763184 39.45810547 -25.2956543 39.43652344 C-32.00132005 39.39015488 -37.03674197 41.35937659 -42.4375 45.4375 C-43.448125 46.200625 -44.45875 46.96375 -45.5 47.75 C-41.38386364 29.77955102 -36.76742288 12.0697217 -20.6875 1.125 C-14.0336024 -2.5393149 -7.0685259 -2.52447354 0 0 Z " fill="#0B0B0B" transform="translate(263.5,388.25)"/>
<path d="M0 0 C2.375 2 2.375 2 4 5 C4.15869141 7.48046875 4.15869141 7.48046875 4.1015625 10.1875 C4.08689941 11.08855469 4.07223633 11.98960937 4.05712891 12.91796875 C4.03827637 13.60503906 4.01942383 14.29210937 4 15 C3.41847168 15.01458252 2.83694336 15.02916504 2.23779297 15.04418945 C-8.85108712 15.35118936 -19.8669193 15.89397208 -30.875 17.3125 C-31.75816895 17.41796143 -32.64133789 17.52342285 -33.55126953 17.63208008 C-43.48526091 19.01111846 -54.49953528 23.34200834 -60.8984375 31.38671875 C-62.34787243 33.55406628 -63.71483587 35.73206331 -65 38 C-68.94185093 34.31020348 -71.91550781 30.48303017 -74.8125 25.9375 C-75.21919922 25.32583984 -75.62589844 24.71417969 -76.04492188 24.08398438 C-78.22897741 20.68860392 -79 19.14429469 -79 15 C-77.28634596 12.8586598 -75.59850966 10.94715738 -73.6875 9 C-69.78692888 4.97811531 -69.78692888 4.97811531 -66.26953125 0.625 C-65.85058594 0.08875 -65.43164062 -0.4475 -65 -1 C-64.34 -1 -63.68 -1 -63 -1 C-63 1.64 -63 4.28 -63 7 C-50.79 7 -38.58 7 -26 7 C-25.67 5.35 -25.34 3.7 -25 2 C-18.6067172 -4.57087398 -7.91962937 -3.18138958 0 0 Z " fill="#0B0B0B" transform="translate(662,459)"/>
<path d="M0 0 C2.27024968 -0.08097324 4.54132075 -0.13917704 6.8125 -0.1875 C8.07707031 -0.22230469 9.34164063 -0.25710938 10.64453125 -0.29296875 C14 0 14 0 15.88671875 1.23046875 C17.60547535 3.96238714 17.87186514 6.69915714 18.375 9.84375 C19.12667639 12.43703355 19.8982843 13.32454117 22 15 C24.2143507 15.50155022 24.2143507 15.50155022 26.66796875 15.51171875 C27.56064453 15.54716797 28.45332031 15.58261719 29.37304688 15.61914062 C30.30181641 15.64169922 31.23058594 15.66425781 32.1875 15.6875 C33.59805664 15.73874023 33.59805664 15.73874023 35.03710938 15.79101562 C37.35795393 15.87348218 39.67842148 15.94263403 42 16 C42.495 17.98 42.495 17.98 43 20 C42.40985107 20.00410889 41.81970215 20.00821777 41.21166992 20.01245117 C38.53592984 20.04536148 35.86247525 20.11599621 33.1875 20.1875 C31.7943457 20.19620117 31.7943457 20.19620117 30.37304688 20.20507812 C27.82323054 20.28792414 25.4861672 20.42479275 23 21 C19.99968501 24.31049793 19.44855981 27.84414091 18.72265625 32.1328125 C17.69975208 34.77577572 16.45203433 35.61809749 14 37 C9.15417476 37.73662321 4.51386803 37.58701005 -0.0625 35.8125 C-2.89955672 33.1584792 -3.84074479 30.35728264 -4.29052734 26.52392578 C-4.33983832 23.72380444 -4.37130041 20.925587 -4.375 18.125 C-4.39949219 17.15691406 -4.42398437 16.18882812 -4.44921875 15.19140625 C-4.47491637 8.89548999 -3.6412516 5.16683528 0 0 Z " fill="#181B45" transform="translate(453,467)"/>
<path d="M0 0 C1.14210938 -0.03996094 2.28421875 -0.07992188 3.4609375 -0.12109375 C6.625 0.4375 6.625 0.4375 9.01171875 2.18359375 C11.55195214 7.30711533 11.1623163 12.30270864 11.0625 17.9375 C11.06958984 19.06542969 11.07667969 20.19335938 11.08398438 21.35546875 C11.03141083 28.19002947 10.64476248 32.41773752 5.625 37.4375 C1.04364817 38.06186122 -3.15005257 37.93747854 -7.4375 36.1875 C-10.18901592 33.70225981 -10.30817142 31.58122342 -10.52026367 27.95141602 C-10.54481073 24.96749618 -10.5606523 21.98402839 -10.5625 19 C-10.57474609 17.96294922 -10.58699219 16.92589844 -10.59960938 15.85742188 C-10.60154297 14.85388672 -10.60347656 13.85035156 -10.60546875 12.81640625 C-10.60957764 11.9044751 -10.61368652 10.99254395 -10.61791992 10.05297852 C-9.92707629 2.61477966 -7.30134006 0.1394638 0 0 Z " fill="#161A46" transform="translate(375.375,466.5625)"/>
<path d="M0 0 C0.61898212 9.66299862 0.61898212 9.66299862 -1.5625 14.375 C-6.65274127 19.85679829 -9.29321412 22.22849824 -16.96191406 22.58251953 C-18.0326416 22.60354736 -18.0326416 22.60354736 -19.125 22.625 C-19.81819336 22.64804199 -20.51138672 22.67108398 -21.22558594 22.69482422 C-25.08744554 22.63636743 -26.87539918 22.09700355 -29.9453125 19.70703125 C-32.42141715 16.44478692 -32.86832024 14.95920932 -32.62109375 10.99609375 C-31.15794725 6.29378014 -26.6826596 3.90604747 -22.5625 1.6875 C-15.11562868 -0.31044109 -7.65268899 -0.11479033 0 0 Z " fill="#0A0B0B" transform="translate(666,492)"/>
<path d="M0 0 C3.73818228 2.02859782 6.51180711 4.64558222 8.66015625 8.28125 C9.15515625 12.24125 9.15515625 12.24125 9.66015625 16.28125 C-2.87984375 16.28125 -15.41984375 16.28125 -28.33984375 16.28125 C-26.08787525 6.14739173 -26.08787525 6.14739173 -22.33984375 3.28125 C-21.63859375 2.724375 -20.93734375 2.1675 -20.21484375 1.59375 C-14.7384548 -2.23972226 -6.25092719 -1.92015126 0 0 Z " fill="#0C0C0C" transform="translate(747.33984375,457.71875)"/>
<path d="M0 0 C1.08410156 -0.00257813 2.16820312 -0.00515625 3.28515625 -0.0078125 C5.9375 0.125 5.9375 0.125 6.9375 1.125 C8.27316274 10.13649675 5.43705334 16.45165458 0.9375 24.125 C-0.25875 23.96 -1.455 23.795 -2.6875 23.625 C-9.13291997 22.89280029 -15.58545265 23.04207905 -22.0625 23.125 C-20.35313981 13.00378834 -16.0739541 7.41971394 -8.0625 1.125 C-5.31744537 -0.24752731 -3.05922588 -0.00729255 0 0 Z " fill="#181B46" transform="translate(255.0625,395.875)"/>
<path d="M0 0 C0.33 0 0.66 0 1 0 C1 12.21 1 24.42 1 37 C-4.8863548 35.82272904 -10.75888865 34.6402397 -16.625 33.375 C-17.83414062 33.11460937 -19.04328125 32.85421875 -20.2890625 32.5859375 C-21.18367188 32.39257812 -22.07828125 32.19921875 -23 32 C-23 31.67 -23 31.34 -23 31 C-15.36627584 30.47951881 -8.20095923 32.59968026 -1 35 C-1.00785522 33.5162085 -1.00785522 33.5162085 -1.01586914 32.00244141 C-1.03394523 28.33855084 -1.04544158 24.67466423 -1.05493164 21.01074219 C-1.05996588 19.42382139 -1.06679369 17.83690523 -1.07543945 16.25 C-1.08754482 13.97134251 -1.09323733 11.69274624 -1.09765625 9.4140625 C-1.10281754 8.70255035 -1.10797882 7.99103821 -1.11329651 7.25796509 C-1.11387171 2.22774341 -1.11387171 2.22774341 0 0 Z " fill="#2D2F4B" transform="translate(495,393)"/>
<path d="M0 0 C6.6 0 13.2 0 20 0 C19.67 1.32 19.34 2.64 19 4 C14.07748744 6.58431909 9.27162851 6.24038318 4 5 C1.4375 3.5625 1.4375 3.5625 0 2 C0 1.34 0 0.68 0 0 Z " fill="#22254A" transform="translate(729,500)"/>
<path d="M0 0 C0.88623047 -0.00773437 1.77246094 -0.01546875 2.68554688 -0.0234375 C18.46008595 0.02258595 18.46008595 0.02258595 22.6875 4.25 C22.03048096 4.1792627 21.37346191 4.10852539 20.6965332 4.03564453 C13.73671822 3.33776195 6.8669284 3.0973457 -0.125 3.125 C-1.12208984 3.12113281 -2.11917969 3.11726563 -3.14648438 3.11328125 C-7.97977964 3.11971278 -12.56222605 3.23381236 -17.3125 4.25 C-17.3125 3.59 -17.3125 2.93 -17.3125 2.25 C-11.44814751 0.22836275 -6.17613795 -0.05320435 0 0 Z " fill="#21233E" transform="translate(261.3125,344.75)"/>
<path d="M0 0 C-0.71428571 8.57142857 -0.71428571 8.57142857 -4 12 C-3.54177532 8.53058454 -3.10868317 5.32604951 -2 2 C-3.60875 2.495 -3.60875 2.495 -5.25 3 C-12.65926579 4.84572458 -20.93116402 5.14170488 -28 2 C-28 1.67 -28 1.34 -28 1 C-26.15535156 1.01740234 -26.15535156 1.01740234 -24.2734375 1.03515625 C-22.64062653 1.04454022 -21.0078139 1.05363977 -19.375 1.0625 C-18.56675781 1.07087891 -17.75851563 1.07925781 -16.92578125 1.08789062 C-11.19924092 1.11116924 -5.6874544 0 0 0 Z " fill="#262844" transform="translate(245,475)"/>
<path d="M0 0 C15.18 0 30.36 0 46 0 C46 0.66 46 1.32 46 2 C47.0725 1.649375 48.145 1.29875 49.25 0.9375 C52.78720743 0.05319814 53.74811124 -0.02880551 57 1 C55.75283203 1.30744141 55.75283203 1.30744141 54.48046875 1.62109375 C53.39378906 1.89050781 52.30710937 2.15992188 51.1875 2.4375 C50.10855469 2.70433594 49.02960937 2.97117187 47.91796875 3.24609375 C45.9259157 3.76077412 43.95188476 4.34937175 42 5 C42.33 4.01 42.66 3.02 43 2 C28.81 1.67 14.62 1.34 0 1 C0 0.67 0 0.34 0 0 Z " fill="#797B7B" transform="translate(574,434)"/>
<path d="M0 0 C1.875 0.3125 1.875 0.3125 4 1 C6.2654445 4.39816675 6.25668408 5.6331242 6.265625 9.62109375 C6.26820313 10.72130859 6.27078125 11.82152344 6.2734375 12.95507812 C6.26570313 14.10427734 6.25796875 15.25347656 6.25 16.4375 C6.25773437 17.58283203 6.26546875 18.72816406 6.2734375 19.90820312 C6.26957031 21.56045898 6.26957031 21.56045898 6.265625 23.24609375 C6.26336914 24.25341553 6.26111328 25.2607373 6.25878906 26.29858398 C5.99780652 29.02289706 5.39537104 30.67241857 4 33 C2.94633381 29.83900142 2.89951735 27.6587913 2.9375 24.34375 C2.94523437 23.23902344 2.95296875 22.13429688 2.9609375 20.99609375 C2.98697917 18.66536458 3.01302083 16.33463542 3.0390625 14.00390625 C3.04679687 12.89917969 3.05453125 11.79445313 3.0625 10.65625 C3.07410156 9.64369141 3.08570313 8.63113281 3.09765625 7.58789062 C2.96714931 4.12945661 2.46525391 2.46525391 0 0 Z " fill="#242744" transform="translate(380,468)"/>
<path d="M0 0 C-0.25 1.875 -0.25 1.875 -1 4 C-3.97397684 5.91184226 -6.25541503 6.22778191 -9.75 6.125 C-10.54921875 6.10695313 -11.3484375 6.08890625 -12.171875 6.0703125 C-12.77515625 6.04710937 -13.3784375 6.02390625 -14 6 C-13.67 5.01 -13.34 4.02 -13 3 C-11.07421875 2.05078125 -11.07421875 2.05078125 -8.6875 1.3125 C-7.90761719 1.06113281 -7.12773438 0.80976563 -6.32421875 0.55078125 C-4 0 -4 0 0 0 Z " fill="#272947" transform="translate(657,500)"/>
<path d="M0 0 C3.63 0.33 7.26 0.66 11 1 C8.19195732 3.96404505 5.81684226 6.44499019 2 8 C0.4375 6.25 0.4375 6.25 -1 4 C-0.67 2.68 -0.34 1.36 0 0 Z " fill="#2D2F4B" transform="translate(594,474)"/>
<path d="M0 0 C1.10802511 3.32407533 0.92524151 3.97699033 -0.14453125 7.16015625 C-0.54188477 8.3502832 -0.54188477 8.3502832 -0.94726562 9.56445312 C-1.23279297 10.38880859 -1.51832031 11.21316406 -1.8125 12.0625 C-2.08642578 12.89072266 -2.36035156 13.71894531 -2.64257812 14.57226562 C-4.73287408 20.73287408 -4.73287408 20.73287408 -7 23 C-5.90612562 14.70614646 -3.47288089 7.59527005 0 0 Z " fill="#2A2D48" transform="translate(156,468)"/>
<path d="M0 0 C1.32 0.66 2.64 1.32 4 2 C3.09507812 2.78117187 3.09507812 2.78117187 2.171875 3.578125 C-0.42295639 6.47164202 -1.43735099 9.10375276 -2.75 12.75 C-3.17796875 13.92046875 -3.6059375 15.0909375 -4.046875 16.296875 C-4.36140625 17.18890625 -4.6759375 18.0809375 -5 19 C-6.35069977 14.94790069 -4.98839952 12.23313056 -3.625 8.375 C-3.39039063 7.68148438 -3.15578125 6.98796875 -2.9140625 6.2734375 C-1.15438988 1.15438988 -1.15438988 1.15438988 0 0 Z " fill="#292B47" transform="translate(213,474)"/>
<path d="M0 0 C1.35814777 4.0744433 -0.05254238 6.81468116 -1.4375 10.6875 C-1.68048828 11.38939453 -1.92347656 12.09128906 -2.17382812 12.81445312 C-2.7744944 14.54578532 -3.38619719 16.27328137 -4 18 C-4.33 18 -4.66 18 -5 18 C-5.28773432 13.20922365 -4.44169975 9.99382444 -2.5 5.625 C-2.0359375 4.56539062 -1.571875 3.50578125 -1.09375 2.4140625 C-0.55234375 1.21910156 -0.55234375 1.21910156 0 0 Z " fill="#272945" transform="translate(139,516)"/>
<path d="M0 0 C0.66 0.33 1.32 0.66 2 1 C-1.3 4.3 -4.6 7.6 -8 11 C-8.33 10.34 -8.66 9.68 -9 9 C-8.06725891 7.87105124 -7.12859878 6.74699124 -6.1875 5.625 C-5.66542969 4.99851562 -5.14335938 4.37203125 -4.60546875 3.7265625 C-3 2 -3 2 0 0 Z " fill="#CDCECE" transform="translate(608,483)"/>
<path d="M0 0 C6.15222436 0.43173504 9.81917949 1.65405342 15 5 C13 6 13 6 9.9609375 5.00390625 C8.77757812 4.52824219 7.59421875 4.05257813 6.375 3.5625 C5.18648438 3.08941406 3.99796875 2.61632812 2.7734375 2.12890625 C1.85820312 1.75636719 0.94296875 1.38382812 0 1 C0 0.67 0 0.34 0 0 Z " fill="#262944" transform="translate(398,426)"/>
<path d="M0 0 C6.75479274 -0.7342166 11.18524285 1.72408048 17 5 C15 6 15 6 11.5234375 5.00390625 C10.13802064 4.53099953 8.75528453 4.05018356 7.375 3.5625 C6.31539062 3.19801758 6.31539062 3.19801758 5.234375 2.82617188 C3.48726713 2.22412795 1.74332214 1.61291983 0 1 C0 0.67 0 0.34 0 0 Z " fill="#282A47" transform="translate(676,426)"/>
<path d="M0 0 C6.67491831 -0.45510807 12.59374557 1.2327574 19 3 C18.67 3.66 18.34 4.32 18 5 C9.09 3.02 9.09 3.02 0 1 C0 0.67 0 0.34 0 0 Z " fill="#2E304B" transform="translate(472,424)"/>
<path d="M0 0 C1.32 0 2.64 0 4 0 C3.28571429 8.57142857 3.28571429 8.57142857 0 12 C0.46800711 7.94393835 0.87953208 4.53411321 3 1 C2.01 0.67 1.02 0.34 0 0 Z " fill="#22243A" transform="translate(241,475)"/>
<path d="M0 0 C-3.732388 3.57011026 -8.0949989 4.10913442 -13 5 C-8.61576048 1.55524038 -5.69164233 -0.31620235 0 0 Z " fill="#272943" transform="translate(350,427)"/>
<path d="M0 0 C0.66 0 1.32 0 2 0 C0.55746343 3.36591866 -1.33264727 5.51047079 -4 8 C-4.66 7.67 -5.32 7.34 -6 7 C-5.04882866 5.8274869 -4.08882991 4.66212985 -3.125 3.5 C-2.59132813 2.8503125 -2.05765625 2.200625 -1.5078125 1.53125 C-0.76144531 0.77328125 -0.76144531 0.77328125 0 0 Z " fill="#D1D1D0" transform="translate(333,445)"/>
<path d="M0 0 C0.66 0.33 1.32 0.66 2 1 C1.0479279 2.00596297 0.08812654 3.00461563 -0.875 4 C-1.40867187 4.556875 -1.94234375 5.11375 -2.4921875 5.6875 C-4 7 -4 7 -6 7 C-4.60667426 3.63279613 -3.0210714 2.0140476 0 0 Z " fill="#333434" transform="translate(365,460)"/>
<path d="M0 0 C0.33 0.66 0.66 1.32 1 2 C1.99 2.33 2.98 2.66 4 3 C2.6875 4.5 2.6875 4.5 1 6 C0.01 6 -0.98 6 -2 6 C-1.34 4.02 -0.68 2.04 0 0 Z " fill="#2A2D48" transform="translate(290,512)"/>
<path d="M0 0 C1.22589844 0.01353516 1.22589844 0.01353516 2.4765625 0.02734375 C3.41628906 0.04474609 3.41628906 0.04474609 4.375 0.0625 C4.375 0.3925 4.375 0.7225 4.375 1.0625 C0.745 1.7225 -2.885 2.3825 -6.625 3.0625 C-6.625 2.4025 -6.625 1.7425 -6.625 1.0625 C-4.21954362 -0.14022819 -2.67503047 -0.03821472 0 0 Z " fill="#262842" transform="translate(250.625,345.9375)"/>
<path d="M0 0 C1.98 0 3.96 0 6 0 C4.515 1.98 4.515 1.98 3 4 C2.01 3.67 1.02 3.34 0 3 C0 2.01 0 1.02 0 0 Z " fill="#141847" transform="translate(595,476)"/>
</svg>
